<?xml version="1.0" standalone="no"?><!DOCTYPE svg PUBLIC "-//W3C//DTD SVG 1.1//EN" "http://www.w3.org/Graphics/SVG/1.1/DTD/svg11.dtd"><svg t="1582110554985" class="icon" viewBox="0 0 1142 1024" version="1.1" xmlns="http://www.w3.org/2000/svg" p-id="3095" xmlns:xlink="http://www.w3.org/1999/xlink" width="223.046875" height="200"><defs><style type="text/css"></style></defs><path d="M1055.588689 610.714653c-15.794344 0-31.588689-5.264781-44.750643-15.794345l-436.976863-368.534704h-5.264782L128.987147 592.287918c-28.956298 23.691517-71.07455 18.426735-94.766067-7.897172l-15.794345-21.059126c-23.691517-28.956298-21.059126-71.07455 7.897172-97.398458l508.051414-421.182519c23.691517-18.426735 57.912596-18.426735 78.971723 0l152.678663 128.987146V65.809769c0-36.85347 28.956298-65.809769 65.809769-65.809769h94.766066c36.85347 0 65.809769 28.956298 65.809769 65.809769v300.092545l126.354756 102.663239c28.956298 26.323907 31.588689 68.442159 7.897172 97.398457l-15.794344 21.059126c-18.426735 13.161954-36.85347 23.691517-55.280206 23.691517zM571.228792 160.575835c15.794344 0 31.588689 5.264781 42.118252 15.794345l436.976863 368.534704h5.264782l18.426735-21.059126v-5.264781l-123.722365-100.030848c-15.794344-13.161954-23.691517-31.588689-23.691517-50.015425V65.809769h-94.766066V263.239075l-34.22108 18.426735-18.426735-13.161954-205.326478-171.105398L529.11054 131.619537 65.809769 515.948586c-2.632391 0-2.632391 2.632391 0 5.264782l15.794344 21.059126h5.264782L529.11054 176.37018c10.529563-10.529563 26.323907-15.794344 42.118252-15.794345z" fill="#211613" p-id="3096"></path><path d="M923.969152 1024h-229.017995c-39.485861 0-68.442159-31.588689-68.44216-68.442159v-200.061697h-110.560411v200.061697c0 39.485861-31.588689 68.442159-68.442159 68.442159H215.856041c-39.485861 0-71.07455-31.588689-71.07455-71.07455V644.935733c0-23.691517 10.529563-44.750643 26.323907-57.912597l347.475579-292.195373c28.956298-23.691517 71.07455-23.691517 100.030848 0l347.475579 292.195373c15.794344 13.161954 26.323907 36.85347 26.323907 57.912597v305.357326c2.632391 42.118252-28.956298 73.706941-68.442159 73.706941zM510.683805 687.053985h118.457583c34.22108 0 60.544987 26.323907 60.544987 60.544987v205.326478c0 2.632391 2.632391 5.264781 5.264782 5.264781h229.017995c2.632391 0 5.264781-2.632391 5.264781-5.264781V647.568123c0-2.632391-2.632391-7.897172-2.632391-7.897172L579.125964 344.843188c-5.264781-5.264781-13.161954-5.264781-15.794344 0L213.22365 637.03856c-2.632391 2.632391-2.632391 5.264781-2.63239 7.897173v305.357326c0 2.632391 2.632391 5.264781 5.264781 5.264782h229.017995c2.632391 0 5.264781-2.632391 5.264781-5.264782v-205.326478c0-28.956298 26.323907-57.912596 60.544988-57.912596z" fill="#211613" p-id="3097"></path></svg>